<?xml version="1.0" standalone="no"?>
<!DOCTYPE svg PUBLIC "-//W3C//DTD SVG 20010904//EN"
 "http://www.w3.org/TR/2001/REC-SVG-20010904/DTD/svg10.dtd">
<svg version="1.0" xmlns="http://www.w3.org/2000/svg"
 width="300.000000pt" height="300.000000pt" viewBox="0 0 300.000000 300.000000"
 preserveAspectRatio="xMidYMid meet">
<metadata>
Created by potrace 1.11, written by Peter Selinger 2001-2013
</metadata>
<g transform="translate(0.000000,300.000000) scale(0.100000,-0.100000)"
fill="#000000" stroke="none">
<path d="M1415 2870 c-157 -19 -321 -81 -462 -174 -57 -37 -61 -42 -45 -54 15
-12 14 -13 -11 -8 -22 4 -35 -2 -62 -30 -19 -19 -35 -40 -35 -46 0 -6 -6 -19
-14 -27 -14 -16 -56 -88 -56 -96 0 -3 7 -5 15 -5 8 0 15 -4 15 -9 0 -5 9 -13
21 -16 19 -6 20 -7 2 -20 -10 -7 -20 -11 -23 -9 -2 3 2 9 10 14 11 7 11 10 3
11 -22 3 -28 4 -40 12 -6 4 -14 4 -17 -1 -6 -10 -17 -60 -19 -84 -1 -9 -4 -15
-8 -12 -16 9 -31 -122 -32 -266 0 -108 10 -164 44 -237 10 -24 19 -48 19 -53
0 -6 5 -8 10 -5 6 4 20 -14 31 -39 23 -53 33 -59 27 -16 -3 17 -1 30 4 30 5 0
7 3 5 8 -9 13 189 -2 206 -16 8 -7 23 -43 32 -81 35 -142 65 -163 246 -169 74
-3 148 0 179 7 51 11 87 6 42 -6 -12 -3 -22 -10 -22 -15 0 -16 52 1 75 23 11
11 43 56 70 102 44 71 55 82 82 85 24 2 35 -3 51 -26 23 -31 92 -183 92 -201
0 -6 16 -34 35 -62 35 -52 43 -83 25 -94 -5 -3 -10 -1 -10 4 0 6 -13 11 -30
11 -16 0 -29 4 -27 9 1 5 -2 10 -6 11 -12 2 -67 -24 -67 -32 0 -5 -12 -8 -26
-8 -14 0 -23 -4 -19 -10 3 -5 -1 -10 -9 -10 -9 0 -16 -5 -16 -12 0 -6 -11 -1
-25 12 -13 12 -22 26 -20 30 3 4 -17 6 -43 4 -35 -2 -52 -9 -68 -27 -16 -19
-25 -22 -39 -15 -13 8 -16 7 -13 -3 2 -7 18 -19 35 -25 24 -10 35 -10 56 1 15
8 27 10 27 6 0 -5 11 -9 25 -10 50 -3 55 -5 55 -17 0 -10 10 -11 38 -7 20 3
56 5 80 5 34 -2 48 3 68 23 17 17 35 25 52 23 30 -4 39 26 15 50 -10 10 -13
25 -9 44 3 15 1 28 -4 28 -17 0 -11 28 8 35 15 6 14 9 -8 29 -14 12 -38 37
-54 54 l-29 31 41 -20 c53 -27 193 -36 290 -19 90 15 120 41 150 134 12 37 22
73 22 81 0 7 10 21 22 29 25 18 34 59 16 73 -11 9 -103 28 -228 46 -24 4 -23
4 3 6 16 0 26 5 22 10 -3 6 -18 6 -38 0 -17 -5 -72 -11 -122 -14 -83 -4 -87
-4 -50 8 22 6 49 17 61 24 11 6 26 8 33 4 7 -5 22 -6 34 -3 14 3 18 1 13 -6
-4 -7 -3 -12 1 -12 5 0 14 10 22 22 12 19 11 23 -5 36 -14 10 -15 13 -4 10 9
-2 17 0 18 5 4 13 -27 64 -43 71 -20 7 -65 -3 -65 -15 0 -5 -3 -8 -7 -7 -14 4
-108 -13 -138 -24 -16 -7 -45 -25 -63 -40 -26 -22 -37 -26 -47 -18 -10 9 -16
7 -24 -9 -13 -23 -57 -24 -70 -2 -5 8 -27 15 -50 15 -31 1 -47 8 -67 29 -14
16 -29 25 -33 21 -3 -4 0 -9 7 -11 6 -3 12 -10 12 -16 -1 -7 -9 -3 -18 8 -29
33 -82 67 -82 53 0 -9 -2 -10 -8 -2 -4 7 -33 17 -65 25 -53 11 -62 11 -93 -6
l-33 -18 42 -19 c70 -33 91 -46 95 -60 2 -9 0 -8 -8 2 -10 13 -11 12 -6 -3 3
-10 6 -21 6 -23 0 -3 15 -11 33 -19 30 -13 23 -14 -98 -15 -71 0 -173 -7 -225
-16 -52 -8 -139 -18 -192 -21 -89 -5 -98 -4 -105 13 -4 11 -15 25 -26 33 -13
9 -18 22 -15 42 4 23 2 26 -9 18 -8 -7 -13 -8 -13 -1 0 5 7 15 15 22 17 14 20
40 5 40 -5 0 -7 6 -4 14 6 17 -12 31 -21 16 -4 -6 -11 -7 -17 -4 -5 3 0 11 13
18 12 6 24 17 27 25 3 8 0 11 -6 7 -6 -3 -13 -2 -17 4 -9 15 23 24 39 11 11
-9 15 -7 19 8 3 14 1 18 -11 14 -12 -5 -14 -1 -8 21 6 24 4 27 -12 22 -12 -4
-19 -1 -19 8 0 8 6 12 14 9 7 -3 13 2 13 11 0 9 5 16 12 16 6 0 9 2 6 5 -3 3
-18 -1 -34 -10 -38 -19 -53 -19 -28 1 10 8 14 13 7 10 -28 -15 -17 11 13 31
33 22 46 19 22 -5 -16 -16 3 -15 25 3 18 13 18 14 -3 25 -16 9 -25 9 -35 0 -8
-7 -20 -10 -27 -7 -22 8 45 29 75 23 20 -4 27 -2 27 10 0 11 -6 13 -20 9 -11
-4 -20 -2 -20 4 0 6 4 11 8 11 5 0 9 7 9 16 0 11 -7 14 -23 11 -14 -2 -25 2
-28 9 -6 17 26 19 55 4 15 -8 19 -8 17 2 -2 7 -16 16 -33 19 -26 6 -25 7 13 8
39 1 43 3 40 24 -2 13 5 30 17 41 14 13 16 20 8 23 -17 6 -17 24 0 22 32 -4
67 2 67 12 0 6 -7 9 -15 5 -8 -3 -15 -1 -15 4 0 11 12 13 49 10 15 -1 21 2 16
9 -6 11 49 29 70 22 5 -1 1 6 -8 17 -22 24 -9 35 29 26 19 -5 25 -4 20 5 -4 6
-11 9 -15 6 -5 -2 -17 2 -27 10 -18 14 -17 15 11 9 55 -11 95 -12 95 -2 0 6
-9 8 -20 5 -11 -3 -23 -1 -26 4 -3 5 0 9 6 9 6 0 9 4 5 9 -3 5 -1 12 5 16 6 4
7 12 4 18 -5 8 -3 8 7 0 20 -19 33 -16 18 4 -13 17 -13 17 11 1 14 -9 24 -21
23 -27 -2 -6 3 -8 11 -5 8 3 12 14 9 24 -3 11 2 27 11 35 15 15 16 15 16 -1 0
-13 3 -14 14 -5 12 10 21 6 47 -18 35 -34 52 -42 26 -13 -21 23 -22 33 -1 25
9 -3 20 0 25 8 6 11 9 8 9 -8 0 -27 20 -31 21 -5 0 15 1 14 8 -3 8 -19 8 -19
19 0 11 18 12 16 7 -10 -5 -29 -5 -29 5 -5 l11 25 21 -25 c12 -14 19 -18 15
-9 -4 12 1 17 19 17 14 0 24 -6 24 -15 0 -7 7 -16 15 -19 8 -4 12 -11 8 -17
-4 -6 -1 -7 6 -2 9 5 10 10 2 18 -6 6 -11 16 -11 22 0 5 5 3 10 -5 8 -13 11
-12 25 5 12 16 14 17 9 3 -11 -31 10 -20 25 13 7 16 16 28 18 25 3 -3 -4 -22
-16 -42 -17 -28 -18 -35 -6 -31 11 5 15 -1 16 -21 0 -16 3 -21 6 -12 4 8 12
21 20 29 12 11 16 11 27 -5 14 -18 12 -36 -8 -64 -9 -13 -8 -13 6 0 9 8 21 31
27 50 10 34 11 33 5 -12 -3 -27 -1 -49 5 -53 7 -4 8 0 4 11 -5 14 -3 15 15 5
15 -8 21 -8 25 2 3 9 7 9 18 0 16 -13 71 -11 91 3 12 8 21 9 53 5 6 -1 3 -6
-5 -11 -11 -7 -11 -10 -2 -10 7 0 23 11 35 23 25 27 57 26 35 -1 -12 -14 -11
-14 9 -1 20 12 26 11 52 -4 16 -9 36 -14 45 -11 12 5 15 2 10 -10 -3 -9 -1
-16 5 -16 36 0 158 -180 163 -238 1 -18 7 -32 12 -32 6 0 6 -4 -1 -11 -11 -11
1 -97 16 -112 12 -12 2 -39 -11 -31 -6 4 -3 -5 7 -19 9 -14 15 -31 14 -39 -4
-29 1 -58 10 -58 15 0 5 197 -13 267 -15 58 -40 119 -102 248 -33 71 -177 208
-275 263 -19 10 -54 30 -79 44 -41 22 -116 45 -205 62 -58 11 -141 14 -200 6z
m-52 -135 c-3 -9 -8 -14 -10 -11 -3 3 -2 9 2 15 9 16 15 13 8 -4z m181 -10
c-4 -8 -11 -15 -16 -15 -6 0 -5 6 2 15 7 8 14 15 16 15 2 0 1 -7 -2 -15z m-54
-36 c0 -4 -11 -6 -25 -5 -30 1 -29 0 -9 21 14 13 19 14 25 3 5 -7 9 -16 9 -19z
m90 7 c0 -8 -8 -13 -17 -11 -10 2 -20 4 -23 4 -7 2 23 21 33 21 4 0 7 -6 7
-14z m-636 -31 c-4 -8 -11 -12 -16 -9 -6 4 -5 10 3 15 19 12 19 11 13 -6z
m723 -27 c-3 -8 -6 -5 -6 6 -1 11 2 17 5 13 3 -3 4 -12 1 -19z m-582 -16 c-3
-3 -11 0 -18 7 -9 10 -8 11 6 5 10 -3 15 -9 12 -12z m669 0 c3 -5 -1 -9 -9 -9
-8 0 -15 4 -15 9 0 4 4 8 9 8 6 0 12 -4 15 -8z m3 -48 c2 -5 -9 -9 -24 -8 -43
2 -49 4 -35 12 17 11 55 8 59 -4z m-783 -33 c3 -5 0 -11 -7 -14 -8 -3 -14 1
-14 9 0 16 13 19 21 5z m-61 -30 c-4 -3 -11 -10 -14 -14 -3 -5 -9 0 -11 11 -4
15 -1 18 14 14 10 -2 15 -7 11 -11z m-43 -6 c0 -1 -9 -5 -19 -8 -13 -3 -18 -1
-14 9 4 10 33 10 33 -1z m-34 -60 c-11 -8 -24 -15 -30 -15 -5 0 -1 7 10 15 10
8 24 14 29 14 6 0 1 -6 -9 -14z m-56 -10 c7 -8 8 -15 2 -15 -5 0 -15 7 -22 15
-7 8 -8 15 -2 15 5 0 15 -7 22 -15z m-35 -55 c-3 -5 -12 -10 -18 -10 -7 0 -6
4 3 10 19 12 23 12 15 0z m19 -95 c-4 -8 -10 -13 -14 -10 -5 3 -10 1 -12 -4
-1 -4 -14 -12 -27 -16 -50 -15 -2 23 56 44 1 1 0 -6 -3 -14z m-64 -109 c0 -3
-4 -8 -10 -11 -5 -3 -10 -1 -10 4 0 6 5 11 10 11 6 0 10 -2 10 -4z m16 -56 c0
-11 -1 -20 -2 -20 -16 0 -32 15 -27 26 8 21 29 17 29 -6z m44 -4 c0 -2 -8 -10
-17 -17 -16 -13 -17 -12 -4 4 13 16 21 21 21 13z m-39 -149 c-10 -9 -11 -8 -5
6 3 10 9 15 12 12 3 -3 0 -11 -7 -18z m668 -148 c22 -1 28 -3 16 -6 -11 -3
-32 -15 -46 -28 -28 -23 -137 -45 -196 -40 -23 2 -33 -1 -33 -11 0 -8 -4 -14
-10 -14 -5 0 -9 -11 -8 -25 3 -29 1 -29 53 -11 26 9 47 11 63 5 13 -5 36 -9
52 -9 16 0 30 -7 34 -15 7 -20 58 -12 133 21 29 13 53 20 53 15 0 -13 -27 -32
-42 -30 -7 1 -30 -5 -50 -14 -21 -10 -42 -17 -47 -17 -5 0 -22 -5 -38 -12
l-28 -11 30 -7 30 -7 -27 -11 c-16 -6 -28 -13 -28 -16 0 -2 25 -4 56 -5 50 0
59 3 90 34 19 19 40 35 47 35 7 0 23 20 37 44 15 28 33 47 48 51 19 5 22 8 12
20 -9 11 -9 15 -1 15 6 0 16 -12 21 -26 9 -22 7 -30 -14 -51 -24 -24 -36 -52
-51 -117 -6 -27 -5 -28 12 -16 10 8 7 2 -7 -13 -39 -45 -111 -60 -258 -55
-145 5 -173 14 -198 67 -21 44 -31 179 -15 209 16 31 172 66 245 56 16 -2 45
-5 65 -5z m837 -20 c32 -6 59 -19 70 -32 15 -17 16 -19 2 -8 -22 17 -35 8 -43
-29 -4 -17 -10 -28 -15 -25 -5 3 -11 -1 -14 -7 -3 -7 -3 -2 0 11 4 16 3 21 -5
17 -7 -5 -11 5 -11 27 0 38 -12 47 -63 46 -18 0 -26 -3 -19 -6 6 -2 12 -11 12
-19 0 -12 -4 -12 -21 -4 -11 7 -23 9 -26 6 -3 -3 3 -9 13 -12 27 -10 54 -35
48 -45 -2 -4 -21 3 -41 16 -20 14 -40 25 -44 25 -5 0 -6 7 -3 15 5 13 -7 15
-72 15 -89 0 -92 6 -8 19 64 10 158 6 240 -10z m-769 5 c-3 -3 -12 -4 -19 -1
-8 3 -5 6 6 6 11 1 17 -2 13 -5z m231 -7 c6 -5 17 -5 24 -1 7 4 8 3 4 -4 -10
-16 -55 -15 -85 2 -23 13 -22 13 10 12 19 -1 40 -5 47 -9z m359 -33 c-3 -3
-12 -4 -19 -1 -8 3 -5 6 6 6 11 1 17 -2 13 -5z m-304 -46 c15 -11 11 -13 -27
-13 -34 0 -42 3 -34 13 6 6 18 12 27 12 10 0 25 -6 34 -12z m564 -53 c-8 -84
-36 -139 -79 -155 -50 -18 -195 -24 -261 -11 -71 15 -110 47 -131 108 -21 62
-21 80 0 58 9 -8 14 -21 11 -28 -3 -7 3 -13 13 -13 10 0 16 4 14 8 -3 4 1 5 8
3 7 -3 26 -26 43 -50 25 -37 36 -45 71 -51 45 -6 84 8 84 30 0 10 -13 13 -50
11 -37 -3 -50 0 -50 10 0 7 -6 16 -12 19 -7 2 14 4 47 3 33 0 69 4 80 11 18
11 15 12 -20 11 -22 -1 -47 1 -55 4 -8 3 -28 10 -45 15 -27 9 -25 10 25 11 56
0 93 6 109 15 4 3 17 -1 27 -9 22 -15 70 -10 95 11 9 8 19 11 22 7 4 -3 7 3 7
14 0 25 8 33 33 33 18 0 19 -5 14 -65z m-97 15 c0 -5 -4 -10 -10 -10 -5 0 -10
5 -10 10 0 6 5 10 10 10 6 0 10 -4 10 -10z m-410 -394 c0 -2 -8 -10 -17 -17
-16 -13 -17 -12 -4 4 13 16 21 21 21 13z"/>
<path d="M1260 2655 c7 -9 15 -13 17 -11 7 7 -7 26 -19 26 -6 0 -6 -6 2 -15z"/>
<path d="M1164 2615 c11 -8 28 -15 39 -15 11 0 16 -5 12 -12 -4 -7 1 -4 10 7
9 11 21 19 26 18 5 -2 9 1 9 6 0 5 -11 8 -24 7 -13 0 -22 -4 -19 -8 2 -5 -5
-8 -16 -8 -11 0 -23 5 -26 10 -3 6 -12 10 -18 10 -7 0 -3 -7 7 -15z"/>
<path d="M1627 2588 c-4 -12 -4 -24 -1 -27 6 -7 24 20 24 37 0 21 -17 13 -23
-10z"/>
<path d="M859 2273 c-13 -16 -12 -17 4 -4 9 7 17 15 17 17 0 8 -8 3 -21 -13z"/>
<path d="M1733 2263 c9 -2 23 -2 30 0 6 3 -1 5 -18 5 -16 0 -22 -2 -12 -5z"/>
<path d="M1603 2253 c15 -2 39 -2 55 0 15 2 2 4 -28 4 -30 0 -43 -2 -27 -4z"/>
<path d="M825 2240 c-11 -5 -16 -9 -11 -9 5 -1 1 -10 -9 -21 -17 -19 -10 -28
11 -12 5 4 0 -1 -11 -12 -22 -20 -26 -37 -11 -48 13 -9 48 21 40 34 -3 4 0 7
8 6 8 -2 13 7 13 27 0 17 5 33 10 37 14 10 -15 9 -40 -2z"/>
<path d="M1405 2230 c17 -4 46 -8 65 -8 32 0 33 1 10 8 -14 4 -43 8 -65 8 -38
0 -39 -1 -10 -8z"/>
<path d="M870 2210 c0 -5 5 -10 10 -10 6 0 10 5 10 10 0 6 -4 10 -10 10 -5 0
-10 -4 -10 -10z"/>
<path d="M834 2145 c-10 -8 -14 -15 -8 -15 5 0 19 7 30 15 10 8 14 15 8 15 -5
0 -19 -7 -30 -15z"/>
<path d="M1475 2150 c11 -5 29 -9 40 -9 l20 0 -20 9 c-11 5 -29 9 -40 9 l-20
0 20 -9z"/>
<path d="M1553 2133 c9 -2 25 -2 35 0 9 3 1 5 -18 5 -19 0 -27 -2 -17 -5z"/>
<path d="M2926 2045 c4 -8 8 -15 10 -15 2 0 4 7 4 15 0 8 -4 15 -10 15 -5 0
-7 -7 -4 -15z"/>
<path d="M786 2041 c-3 -5 1 -11 9 -15 8 -3 15 -1 15 4 0 13 -18 22 -24 11z"/>
<path d="M1226 2042 c-3 -2 -2 -10 1 -18 4 -11 8 -12 19 -3 12 10 13 8 8 -6
-6 -14 -4 -16 7 -9 8 4 19 9 24 10 15 3 65 23 65 26 0 5 -120 5 -124 0z"/>
<path d="M2778 2023 c7 -3 16 -2 19 1 4 3 -2 6 -13 5 -11 0 -14 -3 -6 -6z"/>
<path d="M2934 1865 c4 -88 9 -178 11 -200 2 -22 7 -125 11 -230 3 -104 8
-192 10 -194 3 -3 12 3 22 14 9 10 11 15 5 11 -9 -5 -13 3 -13 28 0 22 5 36
13 36 9 0 8 3 -2 9 -8 5 -15 30 -17 57 -6 90 -23 378 -30 499 -4 66 -9 122
-11 125 -3 3 -2 -67 1 -155z"/>
<path d="M2275 1960 c-3 -6 1 -7 9 -4 18 7 21 14 7 14 -6 0 -13 -4 -16 -10z"/>
<path d="M474 1931 c3 -5 15 -7 26 -4 28 7 25 13 -6 13 -14 0 -23 -4 -20 -9z"/>
<path d="M2166 1925 c-11 -8 -15 -15 -9 -15 6 0 16 7 23 15 16 19 11 19 -14 0z"/>
<path d="M2227 1924 c6 -15 23 -19 23 -5 0 5 -7 11 -14 14 -10 4 -13 1 -9 -9z"/>
<path d="M2285 1920 c-3 -5 -1 -10 4 -10 6 0 11 5 11 10 0 6 -2 10 -4 10 -3 0
-8 -4 -11 -10z"/>
<path d="M480 1891 c0 -5 9 -7 20 -4 11 3 20 7 20 9 0 2 -9 4 -20 4 -11 0 -20
-4 -20 -9z"/>
<path d="M2154 1884 c-18 -14 -18 -14 6 -3 31 14 36 19 24 19 -6 0 -19 -7 -30
-16z"/>
<path d="M505 1860 c-3 -5 1 -10 9 -10 9 0 16 5 16 10 0 6 -4 10 -9 10 -6 0
-13 -4 -16 -10z"/>
<path d="M358 1833 c7 -3 16 -2 19 1 4 3 -2 6 -13 5 -11 0 -14 -3 -6 -6z"/>
<path d="M2788 1833 c7 -3 16 -2 19 1 4 3 -2 6 -13 5 -11 0 -14 -3 -6 -6z"/>
<path d="M370 1800 c-9 -6 -10 -10 -3 -10 6 0 15 5 18 10 8 12 4 12 -15 0z"/>
<path d="M2788 1783 c6 -2 18 -2 25 0 6 3 1 5 -13 5 -14 0 -19 -2 -12 -5z"/>
<path d="M2798 1703 c7 -3 16 -2 19 1 4 3 -2 6 -13 5 -11 0 -14 -3 -6 -6z"/>
<path d="M440 1690 c0 -5 4 -10 9 -10 6 0 13 5 16 10 3 6 -1 10 -9 10 -9 0
-16 -4 -16 -10z"/>
<path d="M637 1687 c-8 -20 15 -97 29 -97 7 0 15 -6 17 -12 3 -7 6 7 6 31 1
34 4 42 16 37 20 -7 19 7 -2 26 -27 24 -60 31 -66 15z"/>
<path d="M460 1620 c-13 -8 -12 -10 3 -10 9 0 17 5 17 10 0 12 -1 12 -20 0z"/>
<path d="M491 1614 c0 -11 3 -14 6 -6 3 7 2 16 -1 19 -3 4 -6 -2 -5 -13z"/>
<path d="M2798 1623 c6 -2 18 -2 25 0 6 3 1 5 -13 5 -14 0 -19 -2 -12 -5z"/>
<path d="M2810 1600 c-8 -5 -12 -12 -9 -15 4 -3 12 1 19 10 14 17 11 19 -10 5z"/>
<path d="M753 1594 c3 -4 1 -16 -5 -27 -8 -16 -7 -23 7 -33 22 -17 35 -9 35
20 0 23 -17 46 -34 46 -5 0 -6 -3 -3 -6z"/>
<path d="M251 1564 c0 -11 3 -14 6 -6 3 7 2 16 -1 19 -3 4 -6 -2 -5 -13z"/>
<path d="M2815 1566 c-12 -17 -61 -34 -51 -18 8 13 -14 28 -23 15 -3 -5 -15
-13 -26 -17 -15 -5 -16 -9 -6 -15 11 -7 9 -11 -8 -20 -19 -11 -21 -9 -21 14 0
14 -4 25 -10 25 -5 0 -7 -7 -3 -16 4 -10 -1 -22 -10 -29 -15 -11 -16 -23 -10
-86 10 -89 6 -139 -8 -118 -8 12 -12 11 -24 -5 -13 -17 -15 -18 -15 -3 0 22
-6 21 -29 0 -29 -29 -32 -50 -22 -157 12 -122 22 -310 15 -278 -6 26 -19 29
-29 5 -11 -27 -22 18 -30 129 -9 122 -22 228 -29 235 -3 3 -12 3 -21 -1 -14
-5 -15 -8 -2 -20 10 -10 16 -55 20 -158 8 -162 16 -220 28 -212 5 3 9 0 9 -5
0 -13 -2 -13 -34 -1 -22 8 -26 16 -26 50 0 27 -5 43 -15 46 -8 4 -15 10 -15
16 0 5 5 6 10 3 6 -4 10 8 10 29 0 39 -14 53 -35 36 -18 -15 -19 -1 -1 22 7
10 16 15 19 11 4 -3 7 10 7 30 0 42 -11 46 -40 17 -21 -21 -24 -32 -14 -43 4
-4 8 -37 10 -74 2 -47 7 -71 18 -79 9 -6 16 -17 16 -25 0 -8 -5 -6 -13 6 -10
12 -16 14 -21 7 -12 -21 -23 -13 -23 16 1 36 -13 175 -17 179 -2 2 -15 -1 -30
-7 -23 -8 -25 -14 -20 -37 4 -16 12 -31 18 -35 8 -6 7 -11 -2 -17 -8 -5 -12
-21 -11 -39 4 -37 -23 -75 -46 -66 -8 4 -15 1 -15 -5 0 -6 -3 -11 -7 -11 -5 0
-9 19 -11 43 -2 23 -5 53 -6 67 -2 14 -4 33 -4 43 -1 10 -7 15 -13 12 -6 -4
-8 -10 -5 -13 4 -3 -1 -16 -9 -28 -13 -21 -13 -23 0 -18 18 7 21 -21 3 -32 -7
-4 -8 -3 -4 4 4 7 3 12 -2 12 -5 0 -12 -9 -15 -20 -4 -17 -1 -19 21 -15 26 5
26 5 4 -5 -13 -5 -21 -14 -18 -19 3 -5 -1 -14 -9 -21 -10 -9 -15 -9 -15 -1 0
6 -7 11 -15 11 -8 0 -15 -4 -15 -9 0 -16 34 -18 63 -4 25 12 27 12 27 -7 0
-11 -5 -20 -11 -20 -5 0 -7 5 -4 10 3 6 2 10 -4 10 -5 0 -13 -4 -16 -10 -3 -5
-2 -10 2 -10 5 0 18 -7 28 -15 11 -8 37 -28 59 -45 21 -16 49 -30 62 -30 12 0
29 -3 38 -6 12 -5 16 0 16 20 0 18 4 24 15 20 19 -8 165 24 165 36 0 4 8 6 18
4 9 -3 77 9 151 26 73 16 135 30 137 30 2 0 4 10 4 23 0 14 6 23 18 24 9 1 38
7 65 14 44 12 47 15 47 45 l0 32 -61 -14 c-61 -14 -87 -11 -59 6 8 6 26 10 40
11 23 0 24 1 5 10 -16 8 -15 8 8 4 43 -9 67 3 67 30 0 17 -4 23 -14 19 -8 -3
-12 -13 -10 -22 5 -15 4 -15 -9 1 -8 9 -19 17 -26 17 -6 0 -11 5 -11 11 0 5 4
8 9 4 5 -3 21 0 35 6 23 11 26 18 25 58 -1 25 -3 38 -6 29 -4 -17 -10 -19 -53
-23 -8 0 -21 -4 -28 -8 -7 -5 -12 -3 -12 6 0 9 -19 20 -46 27 -25 7 -53 20
-61 29 -14 14 -15 13 -9 -7 4 -12 3 -22 -2 -22 -6 0 -10 21 -10 48 -1 50 16
79 56 101 27 14 28 31 5 53 -52 48 -56 81 -17 127 17 21 23 35 17 45 -7 13
-10 13 -18 2z m-17 -41 c-2 -1 -14 -8 -28 -15 -25 -13 -25 -13 -6 8 10 12 23
19 28 16 5 -3 8 -7 6 -9z m-48 -324 c0 -14 -6 -19 -20 -18 -23 1 -25 8 -8 25
17 17 28 15 28 -7z m130 -41 c12 -8 9 -10 -12 -10 -15 0 -30 5 -33 10 -8 13
25 13 45 0z m-80 -28 c0 -4 9 -13 20 -20 15 -9 25 -10 38 -2 16 11 16 11 0 6
-11 -3 -18 0 -18 7 0 9 11 12 35 9 38 -5 47 -21 16 -29 -13 -3 -18 -10 -14
-21 5 -11 2 -14 -10 -9 -11 4 -14 2 -11 -7 4 -9 -3 -13 -21 -13 -18 0 -25 4
-21 13 3 8 0 14 -7 14 -21 0 -47 36 -34 49 13 13 27 14 27 3z m-30 -52 c0 -5
-2 -10 -4 -10 -3 0 -8 5 -11 10 -3 6 -1 10 4 10 6 0 11 -4 11 -10z m-360 -9
c0 -6 -4 -13 -10 -16 -5 -3 -10 1 -10 9 0 9 5 16 10 16 6 0 10 -4 10 -9z m-70
-25 c0 -8 -7 -16 -15 -20 -13 -4 -14 -2 -5 14 13 23 20 26 20 6z m0 -106 c-18
-12 -30 -13 -30 -2 0 4 10 9 22 9 18 2 20 0 8 -7z m-6 -36 c9 -3 16 -14 15
-23 0 -10 -2 -11 -6 -3 -2 6 -11 12 -19 12 -8 0 -14 5 -14 10 0 12 3 12 24 4z"/>
<path d="M261 1524 c0 -11 3 -14 6 -6 3 7 2 16 -1 19 -3 4 -6 -2 -5 -13z"/>
<path d="M30 1490 c0 -5 5 -10 10 -10 6 0 10 5 10 10 0 6 -4 10 -10 10 -5 0
-10 -4 -10 -10z"/>
<path d="M277 1473 c3 -24 -12 -32 -19 -11 -2 6 -10 8 -16 4 -17 -10 -15 -26
3 -26 8 0 15 -4 15 -10 0 -5 -4 -10 -10 -10 -5 0 -10 -7 -10 -16 0 -10 6 -14
15 -10 8 3 15 0 15 -6 0 -7 5 -6 15 2 8 6 19 9 25 5 5 -3 10 2 10 12 0 33 -12
63 -25 63 -8 0 -15 6 -18 13 -2 6 -2 2 0 -10z"/>
<path d="M2 1478 c2 -6 10 -14 16 -16 7 -2 10 2 6 12 -7 18 -28 22 -22 4z"/>
<path d="M2985 1480 c-3 -5 -1 -10 4 -10 6 0 11 5 11 10 0 6 -2 10 -4 10 -3 0
-8 -4 -11 -10z"/>
<path d="M2980 1440 c0 -5 5 -10 10 -10 6 0 10 5 10 10 0 6 -4 10 -10 10 -5 0
-10 -4 -10 -10z"/>
<path d="M740 1436 c0 -2 8 -10 18 -17 15 -13 16 -12 3 4 -13 16 -21 21 -21
13z"/>
<path d="M1503 1415 c-13 -17 -27 -35 -33 -42 -5 -7 -10 -17 -10 -23 0 -5 -3
-10 -8 -10 -14 0 -89 -167 -79 -177 5 -5 47 64 47 78 0 5 10 23 22 39 16 22
24 27 31 18 6 -9 7 -7 3 5 -4 12 6 35 25 63 36 53 38 97 2 49z"/>
<path d="M2305 1420 c-3 -5 -1 -10 4 -10 6 0 11 5 11 10 0 6 -2 10 -4 10 -3 0
-8 -4 -11 -10z"/>
<path d="M2405 1410 c-7 -12 2 -12 30 0 19 8 19 9 -2 9 -12 1 -25 -3 -28 -9z"/>
<path d="M105 1390 c-3 -5 -1 -10 4 -10 6 0 11 5 11 10 0 6 -2 10 -4 10 -3 0
-8 -4 -11 -10z"/>
<path d="M60 1380 c0 -5 5 -10 10 -10 6 0 10 5 10 10 0 6 -4 10 -10 10 -5 0
-10 -4 -10 -10z"/>
<path d="M2300 1379 c0 -5 5 -7 10 -4 6 3 10 8 10 11 0 2 -4 4 -10 4 -5 0 -10
-5 -10 -11z"/>
<path d="M2425 1380 c-3 -6 1 -7 9 -4 18 7 21 14 7 14 -6 0 -13 -4 -16 -10z"/>
<path d="M254 1361 c2 -9 7 -31 11 -48 7 -33 35 -47 35 -18 0 8 9 19 20 25 13
7 19 18 16 33 -2 18 -10 22 -45 23 -34 2 -41 -1 -37 -15z"/>
<path d="M2985 1370 c-3 -5 -1 -10 4 -10 6 0 11 5 11 10 0 6 -2 10 -4 10 -3 0
-8 -4 -11 -10z"/>
<path d="M470 1360 c0 -5 5 -10 10 -10 6 0 10 5 10 10 0 6 -4 10 -10 10 -5 0
-10 -4 -10 -10z"/>
<path d="M2260 1360 c0 -5 5 -10 10 -10 6 0 10 5 10 10 0 6 -4 10 -10 10 -5 0
-10 -4 -10 -10z"/>
<path d="M110 1350 c0 -5 5 -10 10 -10 6 0 10 5 10 10 0 6 -4 10 -10 10 -5 0
-10 -4 -10 -10z"/>
<path d="M2305 1350 c-3 -5 -2 -10 4 -10 5 0 13 5 16 10 3 6 2 10 -4 10 -5 0
-13 -4 -16 -10z"/>
<path d="M2424 1344 c-18 -15 -18 -15 2 -5 12 6 25 7 29 3 5 -4 5 -1 1 6 -9
15 -8 15 -32 -4z"/>
<path d="M30 1330 c0 -5 7 -10 16 -10 8 0 12 5 9 10 -3 6 -10 10 -16 10 -5 0
-9 -4 -9 -10z"/>
<path d="M2265 1330 c-3 -5 -1 -10 4 -10 6 0 11 5 11 10 0 6 -2 10 -4 10 -3 0
-8 -4 -11 -10z"/>
<path d="M4 1310 c3 -14 6 -31 6 -37 0 -7 5 -13 10 -13 12 0 2 50 -13 65 -6 7
-8 2 -3 -15z"/>
<path d="M350 1315 c-10 -12 -10 -15 4 -15 9 0 16 7 16 15 0 8 -2 15 -4 15 -2
0 -9 -7 -16 -15z"/>
<path d="M478 1323 c7 -3 16 -2 19 1 4 3 -2 6 -13 5 -11 0 -14 -3 -6 -6z"/>
<path d="M2315 1320 c-3 -5 -1 -10 4 -10 6 0 11 5 11 10 0 6 -2 10 -4 10 -3 0
-8 -4 -11 -10z"/>
<path d="M2425 1316 c-18 -13 -18 -14 8 -9 15 3 24 9 21 14 -7 12 -7 12 -29
-5z"/>
<path d="M40 1296 c0 -2 7 -6 15 -10 8 -3 15 -1 15 4 0 6 -7 10 -15 10 -8 0
-15 -2 -15 -4z"/>
<path d="M406 1287 c3 -10 9 -15 12 -12 3 3 0 11 -7 18 -10 9 -11 8 -5 -6z"/>
<path d="M450 1292 c0 -20 -39 -35 -56 -21 -10 8 -18 9 -25 2 -16 -16 1 -43
30 -44 22 -1 21 -3 -9 -9 -28 -5 -31 -8 -17 -14 11 -5 26 -2 42 8 31 21 35 20
35 -3 0 -11 5 -23 10 -26 6 -4 8 -11 5 -16 -4 -5 1 -9 9 -9 20 0 20 10 2 79
-14 52 -26 76 -26 53z"/>
<path d="M130 1280 c0 -5 5 -10 10 -10 6 0 10 5 10 10 0 6 -4 10 -10 10 -5 0
-10 -4 -10 -10z"/>
<path d="M328 1283 c7 -3 16 -2 19 1 4 3 -2 6 -13 5 -11 0 -14 -3 -6 -6z"/>
<path d="M90 1270 c0 -5 5 -10 10 -10 6 0 10 5 10 10 0 6 -4 10 -10 10 -5 0
-10 -4 -10 -10z"/>
<path d="M2452 1264 c-11 -12 -9 -14 7 -14 11 0 26 -3 35 -6 25 -10 19 12 -7
23 -16 8 -25 7 -35 -3z"/>
<path d="M2815 1271 c-10 -18 17 -23 33 -7 15 15 15 16 -5 16 -12 0 -24 -4
-28 -9z"/>
<path d="M56 1261 c-3 -5 2 -12 11 -15 12 -5 14 -9 6 -14 -7 -5 -6 -12 5 -22
14 -13 15 -12 9 2 -4 12 0 18 16 21 l22 4 -22 2 c-13 0 -23 8 -23 16 0 16 -16
20 -24 6z"/>
<path d="M498 1253 c7 -3 16 -2 19 1 4 3 -2 6 -13 5 -11 0 -14 -3 -6 -6z"/>
<path d="M26 1228 c8 -27 12 -33 19 -27 7 8 -7 49 -17 49 -5 0 -6 -10 -2 -22z"/>
<path d="M140 1239 c0 -5 5 -7 10 -4 6 3 10 8 10 11 0 2 -4 4 -10 4 -5 0 -10
-5 -10 -11z"/>
<path d="M230 1240 c0 -5 5 -10 11 -10 5 0 7 5 4 10 -3 6 -8 10 -11 10 -2 0
-4 -4 -4 -10z"/>
<path d="M811 1193 c0 -60 9 -97 22 -91 4 2 18 -15 32 -37 26 -43 34 -41 11 3
-7 15 -22 62 -32 105 -10 42 -21 77 -26 77 -4 0 -8 -26 -7 -57z"/>
<path d="M2796 1241 c5 -5 36 -16 69 -25 33 -10 69 -20 80 -23 14 -3 17 -2 10
5 -9 9 -141 52 -161 52 -4 0 -4 -4 2 -9z"/>
<path d="M150 1210 c0 -5 5 -10 11 -10 5 0 7 5 4 10 -3 6 -8 10 -11 10 -2 0
-4 -4 -4 -10z"/>
<path d="M327 1213 c-10 -9 -9 -23 2 -23 5 0 11 7 15 15 5 15 -5 20 -17 8z"/>
<path d="M510 1190 c-13 -8 -12 -10 3 -10 9 0 17 5 17 10 0 12 -1 12 -20 0z"/>
<path d="M52 1181 c-9 -5 -11 -17 -6 -34 9 -37 25 -34 18 2 -5 23 -2 30 12 34
12 3 14 5 4 6 -8 0 -21 -3 -28 -8z"/>
<path d="M348 1179 c-24 -13 -23 -29 2 -29 11 0 20 2 20 4 0 2 3 11 6 20 7 18
-3 20 -28 5z"/>
<path d="M160 1169 c0 -5 5 -7 10 -4 6 3 10 8 10 11 0 2 -4 4 -10 4 -5 0 -10
-5 -10 -11z"/>
<path d="M305 1170 c3 -5 8 -10 11 -10 2 0 4 5 4 10 0 6 -5 10 -11 10 -5 0 -7
-4 -4 -10z"/>
<path d="M90 1158 c-24 -10 -24 -10 -5 -18 12 -4 22 -3 24 4 2 6 9 14 15 18
16 11 -5 9 -34 -4z"/>
<path d="M170 1140 c0 -5 5 -10 11 -10 5 0 7 5 4 10 -3 6 -8 10 -11 10 -2 0
-4 -4 -4 -10z"/>
<path d="M120 1133 c0 -6 -13 -13 -30 -16 -27 -6 -43 -27 -20 -27 6 0 10 5 10
11 0 6 9 9 19 6 19 -5 38 19 26 31 -3 3 -5 1 -5 -5z"/>
<path d="M310 1132 c0 -5 14 -66 30 -135 17 -69 30 -136 30 -148 0 -15 4 -19
16 -15 28 11 5 -11 -26 -24 -25 -10 -29 -17 -24 -34 6 -18 5 -19 -10 -7 -22
18 -20 26 9 39 31 14 33 48 4 57 -15 5 -25 2 -31 -9 -14 -24 -28 -19 -28 10 0
14 -4 23 -10 19 -6 -4 -8 -9 -6 -13 2 -4 -14 -8 -35 -9 -22 -2 -48 -7 -59 -13
-14 -7 -20 -7 -20 0 0 5 6 10 14 10 19 0 40 26 27 34 -6 4 -8 13 -4 21 3 8 0
15 -6 15 -6 0 -8 6 -5 14 3 7 -3 16 -13 20 -15 6 -15 8 -3 16 12 8 12 10 1 10
-7 0 -11 6 -8 15 3 8 0 33 -8 57 -7 24 -13 38 -14 31 -1 -7 -7 -10 -15 -7 -8
3 -24 0 -36 -6 -17 -9 -19 -14 -10 -23 10 -9 14 -9 17 1 3 6 17 12 31 11 26 0
26 -1 -8 -17 -19 -9 -37 -17 -39 -19 -1 -1 3 -14 11 -30 7 -15 13 -42 13 -60
0 -17 4 -29 8 -26 5 3 7 -3 5 -13 -1 -11 1 -20 5 -21 20 -8 27 -1 21 22 -5 19
-2 25 11 25 14 0 15 -3 5 -15 -9 -10 -9 -15 -1 -15 19 0 12 -22 -9 -27 -23 -6
-25 -14 -7 -32 10 -11 9 -13 -5 -8 -10 3 -19 0 -22 -9 -8 -22 -8 -24 9 -24 8
0 15 -4 15 -10 0 -5 -7 -10 -16 -10 -8 0 -12 -4 -9 -10 3 -5 1 -10 -4 -10 -6
0 -11 8 -12 18 0 9 -2 24 -5 32 -2 8 -13 51 -25 95 -11 44 -23 87 -26 95 -3 8
-5 19 -4 24 1 4 -3 14 -10 22 -6 7 -8 18 -5 23 4 5 1 13 -5 17 -11 7 -9 -34 5
-81 29 -101 71 -285 64 -285 -5 0 -8 -6 -7 -12 3 -27 -2 -33 -27 -34 -24 -2
-25 -1 -8 17 19 21 13 24 -17 9 -26 -15 -28 -82 -2 -74 15 5 15 3 -2 -11 -17
-14 -18 -17 -5 -25 10 -7 11 -10 3 -10 -9 0 -13 -17 -13 -50 0 -27 2 -50 5
-50 3 0 32 26 65 57 34 31 75 66 93 77 18 11 39 25 48 31 10 5 41 23 70 38 30
16 70 40 89 55 19 15 48 33 64 40 24 11 27 15 15 23 -11 8 -9 9 7 5 23 -7 40
5 75 54 36 50 44 64 32 57 -6 -4 -14 5 -17 21 -24 96 -27 103 -67 128 -22 13
-37 29 -34 34 3 6 -3 10 -14 10 -12 0 -21 4 -21 10 0 5 -15 9 -32 8 -18 -1
-41 2 -50 6 -11 5 -18 4 -18 -2z m-180 -102 c0 -5 -4 -10 -10 -10 -5 0 -10 -4
-10 -10 0 -5 8 -10 17 -10 13 0 14 -3 5 -12 -9 -9 -15 -8 -26 7 -8 11 -12 25
-9 32 6 15 33 18 33 3z m14 -69 c3 -5 -1 -11 -9 -15 -9 -3 -15 0 -15 9 0 16
16 20 24 6z m101 -180 c3 -5 1 -12 -5 -16 -5 -3 -10 1 -10 9 0 18 6 21 15 7z
m-96 -44 c-1 -20 -2 -20 -6 -3 -5 18 -6 18 -25 -5 l-20 -24 18 32 c19 35 35
35 33 0z m137 8 c-9 -9 -16 -13 -16 -8 0 12 22 34 28 28 2 -2 -3 -11 -12 -20z
m-106 -35 c0 -5 -5 -10 -11 -10 -5 0 -7 5 -4 10 3 6 8 10 11 10 2 0 4 -4 4
-10z m-35 -50 c3 -5 2 -10 -4 -10 -5 0 -13 5 -16 10 -3 6 -2 10 4 10 5 0 13
-4 16 -10z"/>
<path d="M535 1120 c-3 -5 1 -10 10 -10 9 0 13 5 10 10 -3 6 -8 10 -10 10 -2
0 -7 -4 -10 -10z"/>
<path d="M2510 1104 c0 -8 5 -12 10 -9 6 3 10 10 10 16 0 5 -4 9 -10 9 -5 0
-10 -7 -10 -16z"/>
<path d="M180 1099 c0 -5 5 -7 10 -4 6 3 10 8 10 11 0 2 -4 4 -10 4 -5 0 -10
-5 -10 -11z"/>
<path d="M1906 1087 c3 -10 9 -15 12 -12 3 3 0 11 -7 18 -10 9 -11 8 -5 -6z"/>
<path d="M525 1080 c-3 -5 1 -10 9 -10 8 0 18 5 21 10 3 6 -1 10 -9 10 -8 0
-18 -4 -21 -10z"/>
<path d="M830 1084 c0 -6 7 -19 16 -30 14 -18 14 -18 3 6 -14 31 -19 36 -19
24z"/>
<path d="M1316 1057 c-15 -24 -19 -49 -18 -104 1 -43 -2 -73 -8 -73 -6 0 -10
-8 -10 -18 0 -10 -5 -23 -11 -29 -8 -8 -1 -11 25 -11 20 0 34 4 31 8 -7 12 38
86 66 108 36 28 54 32 83 17 15 -8 28 -10 31 -4 8 12 41 11 87 -1 26 -8 38
-17 40 -32 4 -30 62 -44 128 -31 38 8 47 7 43 -3 -7 -19 -36 -26 -117 -30 -39
-1 -77 -3 -84 -3 -7 -1 -10 -5 -7 -11 3 -5 -3 -10 -15 -10 -12 0 -19 -4 -16
-9 3 -4 -3 -16 -14 -26 -11 -10 -17 -21 -15 -26 7 -11 65 -39 82 -39 7 0 13
-7 13 -16 0 -10 5 -14 16 -10 8 3 13 2 9 -3 -6 -10 38 -8 73 4 18 6 20 10 11
21 -9 11 -7 14 9 14 12 0 24 5 27 11 5 7 15 5 31 -6 21 -14 24 -14 24 0 0 16
25 21 35 6 3 -5 -2 -16 -10 -24 -10 -11 -11 -17 -3 -19 8 -3 6 -12 -6 -29 -18
-24 -18 -24 -13 -2 8 37 -10 36 -39 -2 -14 -19 -35 -35 -45 -35 -11 0 -19 -4
-19 -10 0 -5 -9 -10 -20 -10 -11 0 -20 -4 -20 -10 0 -19 -31 -10 -38 11 -7 19
-9 19 -21 5 -10 -12 -17 -14 -27 -5 -8 6 -11 15 -8 20 3 5 -2 6 -11 2 -13 -5
-14 -7 -3 -14 7 -5 11 -9 8 -10 -3 0 -14 -2 -24 -4 -10 -2 -23 -10 -27 -17 -6
-10 -12 -8 -23 7 -13 17 -18 18 -35 8 -11 -7 -27 -10 -36 -7 -8 3 -15 2 -15
-4 0 -5 12 -13 26 -16 15 -4 24 -9 22 -11 -2 -2 -20 1 -40 7 -26 8 -35 15 -31
27 4 13 3 13 -5 2 -10 -14 -56 -6 -47 9 9 15 -55 44 -68 31 -8 -8 -7 -11 3
-11 7 0 11 -2 8 -5 -8 -8 -39 6 -33 15 8 12 -9 20 -23 11 -7 -4 26 -45 94
-116 58 -61 132 -150 165 -198 l61 -88 -37 -36 c-34 -33 -37 -34 -50 -17 -13
17 -14 16 -9 -13 5 -25 3 -34 -11 -39 -9 -4 -27 -16 -38 -28 -12 -12 -34 -31
-49 -42 -23 -18 -26 -26 -19 -49 8 -34 27 -44 34 -18 4 17 5 17 6 1 1 -11 9
-18 21 -18 18 0 19 3 10 23 -10 20 -9 20 9 -3 24 -30 35 -23 22 13 -6 15 -6
29 -1 32 4 3 14 -11 20 -30 14 -41 46 -50 36 -10 -3 14 -9 36 -12 50 -11 46
14 26 31 -25 10 -29 23 -50 31 -50 8 0 14 3 14 6 0 18 -25 91 -35 104 -7 8
-10 22 -8 30 2 8 -5 4 -17 -9 -11 -13 -23 -22 -25 -19 -3 3 1 11 10 18 8 7 15
17 15 22 0 6 -7 5 -15 -2 -19 -16 -20 -3 -1 15 12 12 16 12 28 -3 23 -27 54
-85 67 -125 7 -20 19 -37 27 -37 19 0 18 19 -6 65 -11 22 -25 55 -30 73 -15
57 14 21 51 -63 19 -41 40 -75 47 -75 16 0 16 1 -13 72 -14 34 -25 64 -25 66
0 14 61 -75 72 -104 6 -19 16 -34 20 -34 9 0 6 29 -5 47 -4 6 -9 25 -11 42
l-3 30 34 -32 c19 -18 38 -31 43 -30 5 2 18 -11 30 -27 12 -17 25 -30 30 -30
5 0 14 19 20 43 13 51 58 195 70 222 29 69 34 101 15 85 -7 -6 -15 -21 -18
-33 -3 -12 -21 -68 -41 -125 -20 -56 -37 -112 -37 -125 -1 -12 -5 -2 -9 23 -6
38 -2 62 28 150 19 58 38 107 42 110 4 3 9 20 12 37 4 26 2 30 -9 22 -7 -7
-13 -17 -13 -23 0 -7 -11 -35 -25 -63 -13 -28 -27 -63 -31 -77 -5 -21 -24 -47
-24 -33 0 21 24 127 33 142 6 11 12 22 12 25 1 3 7 18 13 33 14 34 15 37 3 37
-5 0 -12 -11 -15 -25 -4 -14 -17 -49 -30 -78 -13 -28 -26 -61 -29 -72 -2 -11
-5 3 -6 32 0 28 4 55 9 58 6 3 10 14 10 24 0 24 23 71 35 71 6 0 3 5 -5 10
-18 12 -31 13 -28 3 3 -15 -14 -63 -22 -63 -5 0 -11 -8 -13 -18 -3 -10 -5 -5
-6 11 0 16 8 41 20 55 l20 26 -33 28 c-18 15 -40 25 -48 23 -10 -3 -9 0 3 9
16 13 21 12 40 -4 12 -11 63 -47 112 -81 79 -54 84 -56 40 -18 -27 24 -72 65
-99 92 -71 67 -31 62 42 -5 31 -29 49 -44 40 -32 -10 11 -18 25 -18 30 0 5
-16 22 -35 38 -31 26 -38 46 -15 46 4 0 34 -26 66 -57 32 -32 46 -44 31 -27
-15 16 -27 33 -27 37 0 5 -11 20 -25 35 -27 29 -32 46 -12 40 11 -4 65 -67
110 -128 18 -25 18 -25 1 5 -20 35 -85 118 -96 123 -15 7 -8 24 6 19 10 -4 13
-1 10 7 -3 8 -1 17 5 20 6 4 23 -13 38 -36 28 -44 51 -67 66 -68 5 0 -13 27
-38 60 l-47 61 79 83 c69 73 153 192 112 159 -10 -8 -19 -9 -27 -3 -9 7 -9 7
-2 -2 6 -7 10 -19 10 -28 -1 -12 -2 -12 -11 3 -5 9 -17 17 -24 17 -8 0 -14 3
-14 8 4 21 -2 31 -15 26 -12 -4 -14 2 -10 31 5 40 -13 76 -27 54 -4 -7 -14 -9
-24 -6 -9 4 -13 11 -10 17 3 5 -1 10 -9 10 -9 0 -16 -4 -16 -10 0 -5 -7 -10
-15 -10 -8 0 -15 -5 -15 -11 0 -6 -7 -8 -16 -5 -14 5 -15 4 -5 -8 9 -11 8 -15
-3 -19 -8 -3 -16 -1 -18 5 -3 8 -10 8 -24 0 -15 -8 -27 -8 -45 2 -13 6 -44 11
-69 9 -57 -5 -65 -5 -119 3 -30 4 -60 1 -96 -11 -46 -16 -57 -17 -98 -5 -25 8
-43 18 -41 22 3 4 1 8 -3 8 -5 0 -16 -12 -25 -27 -12 -19 -18 -23 -18 -12 0 9
-7 22 -15 29 -11 9 -12 17 -4 32 18 33 5 29 -15 -5z m24 -433 c0 -2 -7 -4 -15
-4 -8 0 -15 4 -15 10 0 5 7 7 15 4 8 -4 15 -8 15 -10z m415 -134 c3 -5 1 -10
-4 -10 -6 0 -11 5 -11 10 0 6 2 10 4 10 3 0 8 -4 11 -10z m45 1 c0 -5 -9 -19
-20 -32 -21 -26 -27 -10 -8 21 13 21 28 27 28 11z m-204 -161 l-38 55 48 -46
c27 -25 72 -61 99 -80 28 -18 60 -42 72 -52 13 -11 27 -16 35 -11 7 4 10 3 5
-1 -4 -5 0 -17 10 -27 9 -10 11 -18 5 -18 -6 0 -14 5 -17 10 -4 6 -15 8 -26 5
-10 -4 -19 -2 -19 3 0 5 -15 8 -32 6 -18 -1 -27 0 -21 2 9 4 9 12 -3 30 -9 13
-21 24 -26 24 -6 0 -5 -7 2 -15 11 -13 10 -14 -4 -9 -9 3 -16 10 -16 14 0 11
-71 55 -89 55 -7 0 -27 26 -45 58 -17 32 -46 77 -64 100 -19 23 10 -3 65 -58
86 -88 93 -93 59 -45z m115 103 c-12 -20 -14 -14 -5 12 4 9 9 14 11 11 3 -2 0
-13 -6 -23z m-17 -62 c-4 -17 -9 -30 -11 -27 -3 2 -2 19 2 36 9 41 17 33 9 -9z
m126 -230 c5 -11 10 -32 9 -48 l-1 -28 -7 26 c-5 14 -14 35 -20 47 -7 14 -8
22 -2 22 6 0 15 -9 21 -19z m-43 -23 c-3 -8 -6 -5 -6 6 -1 11 2 17 5 13 3 -3
4 -12 1 -19z"/>
<path d="M185 1070 c-3 -5 -1 -10 4 -10 6 0 11 5 11 10 0 6 -2 10 -4 10 -3 0
-8 -4 -11 -10z"/>
<path d="M275 1060 c3 -5 8 -10 11 -10 2 0 4 5 4 10 0 6 -5 10 -11 10 -5 0 -7
-4 -4 -10z"/>
<path d="M2510 1060 c0 -5 5 -10 10 -10 6 0 10 5 10 10 0 6 -4 10 -10 10 -5 0
-10 -4 -10 -10z"/>
<path d="M195 1030 c3 -5 8 -10 11 -10 2 0 4 5 4 10 0 6 -5 10 -11 10 -5 0 -7
-4 -4 -10z"/>
<path d="M2520 1020 c0 -5 5 -10 10 -10 6 0 10 5 10 10 0 6 -4 10 -10 10 -5 0
-10 -4 -10 -10z"/>
<path d="M540 1010 c0 -13 11 -13 30 0 12 8 11 10 -7 10 -13 0 -23 -4 -23 -10z"/>
<path d="M595 1010 c3 -5 11 -10 16 -10 6 0 7 5 4 10 -3 6 -11 10 -16 10 -6 0
-7 -4 -4 -10z"/>
<path d="M200 1000 c0 -5 5 -10 10 -10 6 0 10 5 10 10 0 6 -4 10 -10 10 -5 0
-10 -4 -10 -10z"/>
<path d="M290 996 c0 -9 5 -16 10 -16 6 0 10 4 10 9 0 6 -4 13 -10 16 -5 3
-10 -1 -10 -9z"/>
<path d="M603 969 c1 -9 7 -15 14 -12 18 7 17 30 -1 30 -8 0 -14 -8 -13 -18z"/>
<path d="M2526 981 c-4 -7 -5 -15 -2 -18 9 -9 19 4 14 18 -4 11 -6 11 -12 0z"/>
<path d="M210 960 c0 -5 5 -10 10 -10 6 0 10 5 10 10 0 6 -4 10 -10 10 -5 0
-10 -4 -10 -10z"/>
<path d="M300 960 c0 -5 5 -10 11 -10 5 0 7 5 4 10 -3 6 -8 10 -11 10 -2 0 -4
-4 -4 -10z"/>
<path d="M916 923 c15 -27 34 -56 42 -65 8 -10 12 -18 7 -18 -4 0 9 -18 28
-39 20 -22 44 -52 54 -68 37 -58 88 -121 186 -231 56 -62 107 -123 114 -135 7
-12 13 -17 13 -12 0 6 7 2 15 -8 7 -11 11 -25 9 -32 -5 -12 33 -42 42 -33 5 6
-91 136 -144 193 -47 51 -60 65 -142 165 -68 82 -171 218 -209 278 -41 65 -51
68 -15 5z"/>
<path d="M567 953 c-12 -12 -7 -22 8 -17 8 4 15 10 15 15 0 11 -14 12 -23 2z"/>
<path d="M220 930 c0 -5 5 -10 10 -10 6 0 10 5 10 10 0 6 -4 10 -10 10 -5 0
-10 -4 -10 -10z"/>
<path d="M311 924 c0 -11 3 -14 6 -6 3 7 2 16 -1 19 -3 4 -6 -2 -5 -13z"/>
<path d="M2520 930 c0 -5 4 -10 9 -10 6 0 13 5 16 10 3 6 -1 10 -9 10 -9 0
-16 -4 -16 -10z"/>
<path d="M2948 927 c-27 -6 -48 -15 -48 -20 0 -5 8 -6 18 -2 9 3 29 9 45 12
15 3 30 10 33 14 3 5 4 8 2 8 -2 -1 -24 -6 -50 -12z"/>
<path d="M230 900 c0 -5 5 -10 11 -10 5 0 7 5 4 10 -3 6 -8 10 -11 10 -2 0 -4
-4 -4 -10z"/>
<path d="M826 880 c23 -41 178 -266 188 -272 6 -4 8 -8 4 -8 -4 0 31 -39 77
-86 47 -47 83 -89 81 -93 -3 -4 1 -8 9 -8 8 0 15 3 15 6 0 4 -46 56 -103 116
-57 61 -138 162 -181 225 -72 105 -113 159 -90 120z"/>
<path d="M880 885 c0 -2 17 -30 38 -61 20 -31 42 -64 47 -73 6 -9 22 -29 38
-45 15 -16 27 -35 27 -42 0 -8 9 -19 20 -26 11 -7 20 -16 20 -19 0 -4 17 -25
38 -47 93 -99 132 -145 132 -153 0 -4 8 -13 18 -18 22 -12 54 -66 44 -76 -4
-5 -2 -5 4 -2 11 6 40 -40 35 -56 -1 -5 3 -6 8 -2 19 11 -82 157 -194 279 -93
102 -203 241 -244 309 -21 34 -31 45 -31 32z"/>
<path d="M791 863 c73 -96 117 -147 104 -123 -11 21 -107 140 -113 140 -2 0 2
-8 9 -17z"/>
<path d="M30 829 c0 -5 5 -7 10 -4 6 3 10 8 10 11 0 2 -4 4 -10 4 -5 0 -10 -5
-10 -11z"/>
<path d="M1037 826 c44 -75 360 -443 376 -438 5 1 6 -2 3 -7 -3 -4 10 -25 29
-45 19 -21 35 -46 35 -57 0 -11 4 -18 9 -15 5 3 12 -1 15 -10 4 -9 9 -14 12
-11 4 3 -8 27 -25 52 -17 25 -31 48 -31 51 0 7 -33 50 -74 94 -34 38 -163 193
-186 225 -14 19 -14 19 3 6 13 -10 21 -11 29 -3 8 8 4 14 -16 22 -15 5 -30 10
-34 10 -4 0 -40 31 -79 69 -40 38 -70 64 -66 57z"/>
<path d="M2915 825 c-39 -14 -40 -14 -5 -8 41 7 82 22 60 22 -8 0 -33 -7 -55
-14z"/>
<path d="M2848 803 c7 -3 16 -2 19 1 4 3 -2 6 -13 5 -11 0 -14 -3 -6 -6z"/>
<path d="M7 793 c-4 -3 -7 -11 -7 -17 0 -6 5 -5 12 2 6 6 9 14 7 17 -3 3 -9 2
-12 -2z"/>
<path d="M40 789 c0 -5 5 -7 10 -4 6 3 10 8 10 11 0 2 -4 4 -10 4 -5 0 -10 -5
-10 -11z"/>
<path d="M55 750 c-3 -5 -1 -10 4 -10 6 0 11 5 11 10 0 6 -2 10 -4 10 -3 0 -8
-4 -11 -10z"/>
<path d="M2 739 c2 -6 8 -10 13 -10 5 0 11 4 13 10 2 6 -4 11 -13 11 -9 0 -15
-5 -13 -11z"/>
<path d="M2237 740 c13 -12 65 -22 59 -12 -3 6 -19 12 -36 14 -17 3 -27 1 -23
-2z"/>
<path d="M2530 730 c-20 -6 -21 -8 -5 -8 11 0 31 4 45 8 20 6 21 8 5 8 -11 0
-31 -4 -45 -8z"/>
<path d="M1595 710 c3 -5 8 -10 11 -10 2 0 4 5 4 10 0 6 -5 10 -11 10 -5 0 -7
-4 -4 -10z"/>
<path d="M2130 716 c0 -2 9 -6 20 -9 11 -3 18 -1 14 4 -5 9 -34 13 -34 5z"/>
<path d="M2270 690 c8 -5 24 -10 34 -10 26 0 18 6 -19 14 -22 5 -26 4 -15 -4z"/>
<path d="M2149 670 c13 -11 27 -20 32 -20 18 0 8 10 -23 25 l-33 16 24 -21z"/>
<path d="M726 665 c-3 -9 0 -15 9 -15 9 0 12 6 9 15 -4 8 -7 15 -9 15 -2 0 -5
-7 -9 -15z"/>
<path d="M874 652 c4 -12 21 -37 38 -55 l31 -32 -22 32 c-11 17 -21 35 -21 41
0 5 -7 16 -16 23 -15 12 -16 11 -10 -9z"/>
<path d="M2115 640 c3 -5 8 -10 11 -10 2 0 4 5 4 10 0 6 -5 10 -11 10 -5 0 -7
-4 -4 -10z"/>
<path d="M2294 642 c2 -4 19 -8 38 -9 30 -1 31 -1 8 7 -33 11 -52 12 -46 2z"/>
<path d="M2468 638 c5 -5 16 -8 23 -6 8 3 3 7 -10 11 -17 4 -21 3 -13 -5z"/>
<path d="M2040 636 c0 -2 8 -10 18 -17 15 -13 16 -12 3 4 -13 16 -21 21 -21
13z"/>
<path d="M760 622 c0 -5 9 -17 20 -27 11 -10 18 -20 15 -23 -2 -3 13 -26 34
-51 21 -25 66 -84 99 -129 34 -46 62 -80 62 -77 0 12 -41 77 -63 103 -11 12
-18 22 -14 22 3 0 -10 17 -29 38 -20 20 -53 63 -75 95 -39 56 -49 66 -49 49z"/>
<path d="M2160 626 c0 -2 14 -14 30 -26 17 -12 30 -18 30 -13 0 5 -13 17 -30
26 -16 10 -30 16 -30 13z"/>
<path d="M2232 614 c10 -10 20 -16 22 -13 3 3 -5 11 -17 18 -21 13 -21 12 -5
-5z"/>
<path d="M540 605 c0 -8 4 -15 10 -15 5 0 7 7 4 15 -4 8 -8 15 -10 15 -2 0 -4
-7 -4 -15z"/>
<path d="M591 593 c-1 -12 4 -25 9 -28 12 -7 12 2 0 30 -8 19 -9 19 -9 -2z"/>
<path d="M981 565 c17 -25 37 -45 44 -45 8 0 17 -9 20 -20 3 -11 10 -20 15
-20 5 0 39 -45 75 -99 64 -99 106 -146 69 -80 -46 82 -228 309 -248 309 -3 0
8 -20 25 -45z"/>
<path d="M2305 600 c3 -6 20 -10 37 -10 38 0 34 5 -10 13 -21 4 -31 3 -27 -3z"/>
<path d="M2481 596 c3 -3 23 -8 45 -12 21 -3 36 -3 33 0 -3 3 -23 8 -45 12
-21 3 -36 3 -33 0z"/>
<path d="M860 581 c0 -6 4 -13 10 -16 6 -3 7 1 4 9 -7 18 -14 21 -14 7z"/>
<path d="M2270 586 c0 -2 8 -10 18 -17 15 -13 16 -12 3 4 -13 16 -21 21 -21
13z"/>
<path d="M2380 586 c0 -2 7 -7 16 -10 8 -3 12 -2 9 4 -6 10 -25 14 -25 6z"/>
<path d="M2430 581 c0 -5 7 -12 16 -15 14 -5 15 -4 4 9 -14 17 -20 19 -20 6z"/>
<path d="M640 560 c6 -11 12 -20 14 -20 2 0 2 9 -1 20 -3 11 -9 20 -15 20 -5
0 -4 -9 2 -20z"/>
<path d="M2080 577 c0 -11 30 -67 35 -67 6 0 -16 52 -27 65 -4 5 -8 6 -8 2z"/>
<path d="M2120 579 c0 -5 21 -60 79 -204 21 -55 42 -109 45 -119 4 -10 9 -17
11 -14 6 6 -29 107 -59 173 -13 28 -31 73 -41 100 -16 43 -35 79 -35 64z"/>
<path d="M2150 577 c0 -18 37 -69 67 -93 57 -45 73 -51 29 -10 -21 20 -42 36
-46 36 -4 0 -13 14 -20 30 -11 26 -30 50 -30 37z"/>
<path d="M2186 556 c3 -8 15 -16 26 -19 l20 -6 -20 20 c-25 23 -33 24 -26 5z"/>
<path d="M2245 560 c3 -5 8 -10 11 -10 2 0 4 5 4 10 0 6 -5 10 -11 10 -5 0 -7
-4 -4 -10z"/>
<path d="M935 550 c-3 -5 -1 -10 4 -10 6 0 11 5 11 10 0 6 -2 10 -4 10 -3 0
-8 -4 -11 -10z"/>
<path d="M2318 553 c6 -2 18 -2 25 0 6 3 1 5 -13 5 -14 0 -19 -2 -12 -5z"/>
<path d="M2520 549 c0 -5 11 -9 25 -9 14 0 25 2 25 4 0 2 -11 6 -25 8 -14 3
-25 1 -25 -3z"/>
<path d="M690 538 c0 -9 5 -20 10 -23 13 -8 13 5 0 25 -8 13 -10 13 -10 -2z"/>
<path d="M566 532 c-2 -4 -1 -14 3 -21 6 -10 10 -9 14 3 6 16 -8 32 -17 18z"/>
<path d="M2060 523 c0 -12 4 -23 8 -25 5 -1 25 -31 47 -65 21 -35 40 -63 42
-63 5 0 -61 121 -84 155 -13 19 -13 19 -13 -2z"/>
<path d="M2280 531 c0 -8 23 -19 73 -35 9 -3 17 -1 17 4 0 6 -7 10 -15 10 -9
0 -29 7 -45 15 -17 9 -30 11 -30 6z"/>
<path d="M740 508 c0 -15 6 -31 13 -35 8 -4 17 -17 21 -28 5 -12 10 -15 13 -8
2 7 -7 32 -21 55 -24 40 -26 41 -26 16z"/>
<path d="M895 520 c3 -5 8 -10 11 -10 2 0 4 5 4 10 0 6 -5 10 -11 10 -5 0 -7
-4 -4 -10z"/>
<path d="M960 521 c0 -6 4 -13 10 -16 6 -3 7 1 4 9 -7 18 -14 21 -14 7z"/>
<path d="M440 500 c-6 -11 -8 -20 -6 -20 3 0 10 9 16 20 6 11 8 20 6 20 -3 0
-10 -9 -16 -20z"/>
<path d="M2240 516 c0 -2 17 -15 38 -28 36 -25 108 -46 98 -29 -3 5 -23 11
-44 15 -21 3 -47 15 -57 26 -16 18 -35 27 -35 16z"/>
<path d="M2405 510 c3 -5 11 -10 16 -10 6 0 7 5 4 10 -3 6 -11 10 -16 10 -6 0
-7 -4 -4 -10z"/>
<path d="M365 500 c-3 -5 -1 -10 4 -10 6 0 11 5 11 10 0 6 -2 10 -4 10 -3 0
-8 -4 -11 -10z"/>
<path d="M505 499 c-4 -6 -5 -12 -2 -15 2 -3 7 2 10 11 7 17 1 20 -8 4z"/>
<path d="M2544 501 c3 -5 18 -11 33 -14 26 -5 26 -4 8 9 -21 15 -49 19 -41 5z"/>
<path d="M920 493 c0 -11 48 -58 53 -52 2 2 -9 17 -25 33 -15 16 -28 25 -28
19z"/>
<path d="M2040 493 c0 -6 8 -17 18 -24 16 -13 16 -13 2 6 -8 11 -16 22 -17 24
-2 2 -3 0 -3 -6z"/>
<path d="M555 480 c-3 -5 -1 -10 4 -10 6 0 11 5 11 10 0 6 -2 10 -4 10 -3 0
-8 -4 -11 -10z"/>
<path d="M180 465 c7 -8 17 -15 22 -15 6 0 5 7 -2 15 -7 8 -17 15 -22 15 -6 0
-5 -7 2 -15z"/>
<path d="M2200 464 c33 -43 105 -94 134 -94 8 0 19 -7 26 -15 7 -8 28 -17 49
-21 20 -3 63 -19 96 -34 74 -35 168 -71 172 -66 2 2 -18 13 -44 25 -26 12 -55
26 -63 31 -31 20 -106 48 -141 54 -45 7 -69 16 -69 26 0 5 -14 11 -31 15 -17
4 -56 28 -87 53 -31 25 -50 37 -42 26z"/>
<path d="M80 464 c0 -6 7 -19 15 -30 8 -10 14 -14 14 -9 0 6 -6 19 -14 29 -8
11 -15 15 -15 10z"/>
<path d="M130 455 c7 -9 15 -13 17 -11 7 7 -7 26 -19 26 -6 0 -6 -6 2 -15z"/>
<path d="M600 461 c0 -5 5 -13 10 -16 6 -3 10 -2 10 4 0 5 -4 13 -10 16 -5 3
-10 2 -10 -4z"/>
<path d="M2542 460 c14 -4 32 -11 40 -16 10 -6 10 -4 -1 9 -7 9 -25 17 -40 16
l-26 -1 27 -8z"/>
<path d="M673 454 c3 -4 2 -16 -4 -28 -10 -20 -10 -20 5 -2 19 24 20 36 4 36
-6 0 -8 -3 -5 -6z"/>
<path d="M711 436 c-7 -8 -8 -16 -4 -18 4 -1 20 -22 36 -45 15 -24 34 -43 42
-43 8 0 15 -5 15 -11 0 -5 -6 -7 -12 -3 -10 6 -9 3 0 -8 8 -9 20 -14 27 -11
11 4 5 15 -20 41 -19 21 -35 45 -35 55 0 11 -9 21 -19 24 -12 3 -17 11 -14 19
7 18 -1 18 -16 0z"/>
<path d="M46 427 c3 -10 9 -15 12 -12 3 3 0 11 -7 18 -10 9 -11 8 -5 -6z"/>
<path d="M2385 430 c3 -5 16 -10 28 -10 18 0 19 2 7 10 -20 13 -43 13 -35 0z"/>
<path d="M2080 427 c0 -16 31 -80 66 -135 58 -89 61 -85 10 14 -46 89 -75 136
-76 121z"/>
<path d="M2340 411 c62 -35 83 -42 109 -38 22 2 20 4 -14 11 -22 5 -51 17 -64
27 -13 11 -33 19 -45 19 -17 0 -14 -4 14 -19z"/>
<path d="M2570 411 c19 -11 39 -20 45 -21 16 0 -28 27 -55 34 -19 5 -16 2 10
-13z"/>
<path d="M2748 423 c7 -3 16 -2 19 1 4 3 -2 6 -13 5 -11 0 -14 -3 -6 -6z"/>
<path d="M1070 391 c0 -10 7 -22 16 -25 8 -3 12 -10 9 -16 -3 -5 -1 -10 4 -10
14 0 14 6 -4 40 -18 35 -25 38 -25 11z"/>
<path d="M816 390 c5 -8 9 -17 9 -20 1 -7 87 -117 160 -205 33 -40 72 -93 87
-118 15 -26 35 -47 44 -47 21 0 13 12 -102 167 -74 98 -220 263 -198 223z"/>
<path d="M966 387 c3 -10 9 -15 12 -12 3 3 0 11 -7 18 -10 9 -11 8 -5 -6z"/>
<path d="M1194 389 c-4 -7 -3 -9 3 -6 11 7 28 -20 24 -36 -1 -5 3 -6 9 -2 7 4
7 12 0 25 -14 26 -27 33 -36 19z"/>
<path d="M2727 389 c7 -7 15 -10 18 -7 3 3 -2 9 -12 12 -14 6 -15 5 -6 -5z"/>
<path d="M650 365 c13 -14 26 -25 28 -25 3 0 -5 11 -18 25 -13 14 -26 25 -28
25 -3 0 5 -11 18 -25z"/>
<path d="M886 362 c9 -16 40 -57 70 -93 29 -35 68 -83 86 -106 18 -23 36 -42
40 -43 12 0 -43 89 -63 103 -10 7 -46 48 -79 90 -62 79 -84 98 -54 49z"/>
<path d="M2243 372 c10 -11 27 -22 38 -25 32 -8 21 7 -19 27 -37 18 -37 18
-19 -2z"/>
<path d="M2549 377 c6 -8 30 -20 53 -27 24 -8 56 -20 72 -28 15 -7 25 -9 22
-4 -3 6 -28 18 -54 28 -26 10 -56 24 -67 31 -25 17 -41 17 -26 0z"/>
<path d="M1030 374 c0 -11 113 -184 118 -180 4 4 0 11 -68 119 -41 64 -50 75
-50 61z"/>
<path d="M2977 369 c7 -7 15 -10 18 -7 3 3 -2 9 -12 12 -14 6 -15 5 -6 -5z"/>
<path d="M2480 365 c0 -10 201 -97 208 -90 3 2 -12 12 -34 20 -21 9 -46 20
-54 25 -46 29 -120 57 -120 45z"/>
<path d="M2695 360 c3 -5 14 -10 23 -10 15 0 15 2 2 10 -20 13 -33 13 -25 0z"/>
<path d="M120 350 c-8 -5 -12 -12 -9 -15 4 -3 12 1 19 10 14 17 11 19 -10 5z"/>
<path d="M240 356 c0 -2 7 -6 15 -10 8 -3 15 -1 15 4 0 6 -7 10 -15 10 -8 0
-15 -2 -15 -4z"/>
<path d="M990 352 c0 -4 11 -24 25 -44 14 -20 25 -39 25 -42 0 -8 61 -96 67
-96 5 0 -3 13 -72 128 -37 60 -45 70 -45 54z"/>
<path d="M640 346 c0 -2 8 -10 18 -17 15 -13 16 -12 3 4 -13 16 -21 21 -21 13z"/>
<path d="M40 329 c0 -5 5 -7 10 -4 6 3 10 8 10 11 0 2 -4 4 -10 4 -5 0 -10 -5
-10 -11z"/>
<path d="M302 328 c-17 -17 -15 -28 6 -28 14 0 15 2 2 10 -12 8 -11 10 7 10
12 0 25 5 28 10 9 14 -29 12 -43 -2z"/>
<path d="M1240 331 c0 -6 4 -13 10 -16 6 -3 7 1 4 9 -7 18 -14 21 -14 7z"/>
<path d="M2323 333 c9 -2 17 -8 17 -13 0 -8 46 -26 86 -34 10 -2 57 -22 104
-44 113 -53 150 -62 72 -18 -34 20 -66 36 -70 36 -4 0 -25 9 -47 20 -22 11
-51 20 -65 20 -14 0 -40 9 -58 20 -18 11 -38 19 -45 19 -6 -1 -4 -3 6 -6z"/>
<path d="M380 320 c-12 -8 -11 -10 8 -10 12 0 22 5 22 10 0 13 -11 13 -30 0z"/>
<path d="M435 320 c-3 -5 -1 -10 4 -10 6 0 11 5 11 10 0 6 -2 10 -4 10 -3 0
-8 -4 -11 -10z"/>
<path d="M690 329 c0 -3 11 -20 25 -39 14 -19 25 -30 25 -24 -1 10 -50 73 -50
63z"/>
<path d="M735 320 c3 -5 8 -10 11 -10 2 0 4 5 4 10 0 6 -5 10 -11 10 -5 0 -7
-4 -4 -10z"/>
<path d="M1118 325 c-4 -4 3 -22 14 -41 27 -45 35 -37 11 10 -10 20 -22 34
-25 31z"/>
<path d="M2080 325 c0 -12 31 -65 75 -129 25 -36 45 -70 45 -75 0 -5 8 -15 17
-22 17 -14 -27 73 -89 177 -28 47 -48 67 -48 49z"/>
<path d="M2258 317 c8 -9 24 -19 35 -23 12 -3 30 -13 40 -22 15 -13 17 -13 17
0 0 8 -19 23 -42 33 -24 10 -47 21 -53 23 -5 3 -4 -2 3 -11z"/>
<path d="M2930 320 c19 -13 30 -13 30 0 0 6 -10 10 -22 10 -19 0 -20 -2 -8
-10z"/>
<path d="M2970 326 c0 -2 7 -7 16 -10 8 -3 12 -2 9 4 -6 10 -25 14 -25 6z"/>
<path d="M2000 318 c-2 -5 -3 -11 -5 -15 -1 -5 -11 -30 -23 -56 -12 -27 -25
-61 -28 -75 -3 -15 -9 -36 -14 -47 -19 -42 -40 -118 -36 -123 6 -6 5 -8 52
133 20 61 43 123 51 138 8 16 12 34 9 40 -2 7 -5 9 -6 5z"/>
<path d="M655 290 c10 -11 20 -20 23 -20 3 0 -3 9 -13 20 -10 11 -20 20 -23
20 -3 0 3 -9 13 -20z"/>
<path d="M670 306 c0 -2 8 -10 18 -17 15 -13 16 -12 3 4 -13 16 -21 21 -21 13z"/>
<path d="M445 290 c3 -5 8 -10 11 -10 2 0 4 5 4 10 0 6 -5 10 -11 10 -5 0 -7
-4 -4 -10z"/>
<path d="M780 275 c13 -14 26 -25 28 -25 3 0 -5 11 -18 25 -13 14 -26 25 -28
25 -3 0 5 -11 18 -25z"/>
<path d="M1273 285 c5 -32 23 -59 31 -46 4 6 0 14 -8 17 -9 3 -14 9 -12 13 3
4 0 13 -5 21 -7 12 -8 11 -6 -5z"/>
<path d="M2910 294 c0 -9 32 -33 44 -34 5 0 1 9 -9 20 -18 20 -35 26 -35 14z"/>
<path d="M862 245 c44 -64 52 -85 82 -218 4 -15 11 -27 17 -27 14 0 1 64 -28
127 -12 30 -23 56 -23 59 0 20 97 -90 117 -133 26 -54 52 -76 31 -25 -19 42
-27 52 -132 163 -73 77 -90 91 -64 54z"/>
<path d="M2057 284 c-3 -6 4 -26 17 -45 13 -19 51 -80 86 -136 34 -57 66 -103
70 -103 5 0 -23 56 -63 123 -92 158 -102 173 -110 161z"/>
<path d="M826 255 c3 -11 7 -26 7 -32 0 -7 4 -13 9 -13 12 0 9 11 -8 40 -10
17 -13 18 -8 5z"/>
<path d="M2275 260 c8 -13 110 -57 122 -52 1 0 43 -19 92 -43 99 -49 179 -75
227 -75 42 0 114 -31 147 -64 37 -37 57 -32 21 5 -41 43 -113 78 -161 77 -46
0 -151 28 -173 47 -17 14 -142 65 -160 65 -7 0 -34 11 -62 25 -55 28 -62 30
-53 15z"/>
<path d="M2370 260 c8 -5 21 -10 28 -10 7 0 50 -17 96 -39 45 -21 116 -49 156
-61 41 -12 105 -31 141 -42 43 -12 77 -30 94 -48 32 -33 90 -64 108 -57 7 3
-9 14 -35 25 -26 11 -54 32 -63 46 -9 14 -33 30 -53 37 -20 6 -41 15 -46 20
-6 5 -20 9 -32 9 -45 0 -166 33 -197 54 -18 12 -57 31 -87 43 -62 24 -135 39
-110 23z"/>
<path d="M2898 265 c-4 -4 -22 -11 -40 -16 -31 -8 -31 -8 8 -4 35 4 44 1 69
-25 16 -17 36 -30 44 -29 14 0 14 1 1 6 -8 3 -29 21 -45 40 -17 19 -33 31 -37
28z"/>
<path d="M571 243 c7 -12 15 -20 18 -17 3 2 -3 12 -13 22 -17 16 -18 16 -5 -5z"/>
<path d="M2788 253 c6 -2 18 -2 25 0 6 3 1 5 -13 5 -14 0 -19 -2 -12 -5z"/>
<path d="M7 236 c-4 -9 -3 -16 2 -16 4 0 6 -10 4 -23 -3 -14 2 -29 11 -36 11
-9 16 -10 16 -2 0 6 -4 11 -10 11 -5 0 -10 5 -10 11 0 5 5 7 11 3 11 -7 5 25
-11 55 -6 11 -8 10 -13 -3z"/>
<path d="M76 242 c-2 -4 2 -18 10 -32 9 -18 13 -20 14 -8 0 9 -5 20 -10 23 -6
4 -8 11 -5 16 4 5 4 9 1 9 -3 0 -7 -3 -10 -8z"/>
<path d="M425 239 c-4 -6 -5 -12 -2 -15 2 -3 7 2 10 11 7 17 1 20 -8 4z"/>
<path d="M1430 241 c0 -6 5 -13 10 -16 6 -3 10 1 10 9 0 9 -4 16 -10 16 -5 0
-10 -4 -10 -9z"/>
<path d="M2037 233 c7 -18 92 -176 114 -211 8 -12 19 -22 26 -22 7 0 -15 46
-49 103 -34 56 -66 112 -72 124 -13 26 -29 31 -19 6z"/>
<path d="M2967 239 c7 -7 15 -10 18 -7 3 3 -2 9 -12 12 -14 6 -15 5 -6 -5z"/>
<path d="M210 230 c0 -5 5 -10 11 -10 8 0 8 -5 -1 -15 -8 -9 -8 -15 -2 -15 13
0 21 21 14 38 -5 14 -22 16 -22 2z"/>
<path d="M1246 227 c3 -10 9 -15 12 -12 3 3 0 11 -7 18 -10 9 -11 8 -5 -6z"/>
<path d="M156 214 c-8 -21 -8 -34 2 -34 4 0 8 11 8 25 2 29 -1 32 -10 9z"/>
<path d="M1170 220 c0 -5 5 -10 10 -10 6 0 10 5 10 10 0 6 -4 10 -10 10 -5 0
-10 -4 -10 -10z"/>
<path d="M1310 209 c0 -11 4 -18 10 -14 5 3 7 12 3 20 -7 21 -13 19 -13 -6z"/>
<path d="M2260 229 c0 -4 7 -22 15 -40 8 -19 14 -27 14 -19 0 14 -28 72 -29
59z"/>
<path d="M2755 221 c-3 -6 10 -13 30 -17 19 -3 35 -10 35 -15 0 -4 18 -13 41
-19 22 -6 42 -17 45 -25 7 -17 40 -39 74 -50 19 -6 16 0 -15 22 -22 17 -49 40
-59 52 -11 11 -30 21 -43 21 -14 0 -21 4 -18 10 12 20 51 10 77 -20 14 -16 31
-30 37 -30 5 0 -7 19 -28 41 -36 39 -40 41 -69 31 -29 -10 -74 -8 -93 4 -4 2
-10 0 -14 -5z"/>
<path d="M650 213 c0 -6 8 -17 18 -24 16 -13 16 -13 2 6 -8 11 -16 22 -17 24
-2 2 -3 0 -3 -6z"/>
<path d="M2231 210 c0 -8 4 -22 9 -30 12 -18 12 -2 0 25 -6 13 -9 15 -9 5z"/>
<path d="M2020 205 c0 -15 18 -40 24 -34 3 3 -1 14 -9 25 -8 10 -14 15 -15 9z"/>
<path d="M2300 203 c0 -6 24 -19 53 -29 28 -9 86 -33 127 -54 85 -42 132 -59
173 -62 18 -2 26 -7 23 -15 -4 -8 3 -13 17 -13 12 -1 33 -7 47 -15 14 -8 32
-14 40 -14 19 0 -12 25 -55 45 l-30 13 26 1 c14 0 46 -13 70 -30 52 -35 70
-39 43 -9 -34 38 -92 61 -134 54 -46 -8 -138 17 -187 51 -20 13 -54 29 -77 35
-23 6 -49 15 -58 20 -10 5 -26 9 -36 9 -10 0 -23 5 -30 12 -8 8 -12 9 -12 1z"/>
<path d="M1276 187 c3 -10 9 -15 12 -12 3 3 0 11 -7 18 -10 9 -11 8 -5 -6z"/>
<path d="M2688 188 c5 -5 16 -8 23 -6 8 3 3 7 -10 11 -17 4 -21 3 -13 -5z"/>
<path d="M856 177 c3 -10 9 -15 12 -12 3 3 0 11 -7 18 -10 9 -11 8 -5 -6z"/>
<path d="M220 170 c0 -5 5 -10 10 -10 6 0 10 5 10 10 0 6 -4 10 -10 10 -5 0
-10 -4 -10 -10z"/>
<path d="M2775 160 c28 -11 56 -20 62 -20 7 0 30 -15 50 -34 34 -30 93 -66
108 -66 17 0 -1 18 -35 34 -22 11 -47 29 -55 42 -8 13 -33 28 -55 34 -22 6
-40 15 -40 20 0 6 -19 10 -42 10 l-43 -1 50 -19z"/>
<path d="M786 156 c3 -8 13 -17 22 -21 13 -5 13 -2 -3 15 -21 24 -26 25 -19 6z"/>
<path d="M820 166 c0 -2 8 -10 18 -17 15 -13 16 -12 3 4 -13 16 -21 21 -21 13z"/>
<path d="M2000 166 c0 -3 14 -20 31 -38 l32 -33 -22 32 c-21 31 -41 50 -41 39z"/>
<path d="M690 151 c0 -5 7 -15 17 -22 15 -13 15 -12 4 9 -12 23 -21 28 -21 13z"/>
<path d="M1181 140 c14 -31 19 -36 19 -24 0 6 -7 19 -16 30 -14 18 -14 18 -3
-6z"/>
<path d="M2245 150 c3 -5 8 -10 11 -10 2 0 4 5 4 10 0 6 -5 10 -11 10 -5 0 -7
-4 -4 -10z"/>
<path d="M788 95 c14 -30 27 -53 29 -51 5 4 -36 94 -46 100 -5 3 3 -19 17 -49z"/>
<path d="M2291 134 c0 -11 3 -14 6 -6 3 7 2 16 -1 19 -3 4 -6 -2 -5 -13z"/>
<path d="M2335 137 c11 -9 26 -17 33 -17 8 0 55 -20 105 -46 51 -25 111 -48
134 -51 23 -3 41 -8 39 -12 -2 -3 15 -7 37 -8 l42 -2 -35 16 c-19 9 -42 17
-50 18 -46 6 -90 21 -144 50 -34 19 -80 39 -104 45 -24 6 -51 14 -60 17 -13 4
-12 2 3 -10z"/>
<path d="M2985 140 c3 -5 8 -10 11 -10 2 0 4 5 4 10 0 6 -5 10 -11 10 -5 0 -7
-4 -4 -10z"/>
<path d="M545 130 c3 -5 8 -10 11 -10 2 0 4 5 4 10 0 6 -5 10 -11 10 -5 0 -7
-4 -4 -10z"/>
<path d="M1990 133 c0 -12 39 -83 46 -83 5 0 -17 51 -33 75 -7 11 -13 14 -13
8z"/>
<path d="M850 128 c0 -11 44 -88 47 -84 2 2 -6 21 -18 42 -23 42 -29 51 -29
42z"/>
<path d="M820 114 c0 -6 7 -19 15 -30 8 -10 14 -14 14 -9 0 6 -6 19 -14 29 -8
11 -15 15 -15 10z"/>
<path d="M2261 102 c-2 -25 21 -102 30 -102 5 0 6 12 3 28 -9 38 -32 90 -33
74z"/>
<path d="M2306 75 c3 -22 10 -44 14 -49 5 -5 5 8 -1 30 -15 57 -20 64 -13 19z"/>
<path d="M2330 101 c0 -7 19 -20 43 -29 23 -9 66 -29 96 -44 29 -15 63 -28 74
-28 16 0 11 5 -18 21 -93 49 -136 69 -153 69 -10 0 -23 5 -30 12 -9 9 -12 9
-12 -1z"/>
<path d="M670 71 c-14 -26 -13 -31 6 -31 11 0 14 5 10 17 -4 9 -1 20 6 25 10
6 10 8 1 8 -7 0 -17 -9 -23 -19z"/>
<path d="M1166 77 c3 -10 9 -15 12 -12 3 3 0 11 -7 18 -10 9 -11 8 -5 -6z"/>
<path d="M1968 65 c-3 -13 -2 -22 2 -20 4 2 13 -7 20 -20 14 -26 30 -33 30
-14 0 11 -38 79 -45 79 -1 0 -5 -11 -7 -25z"/>
<path d="M1730 71 c0 -5 5 -13 11 -16 5 -4 14 -18 19 -31 5 -13 14 -24 19 -24
6 0 1 16 -10 35 -22 37 -39 53 -39 36z"/>
<path d="M2080 74 c0 -14 33 -74 41 -74 13 0 11 9 -12 46 -20 32 -29 41 -29
28z"/>
<path d="M469 68 c-7 -24 -5 -38 7 -38 8 0 14 5 14 10 0 6 -5 10 -11 10 -5 0
-7 5 -4 10 3 6 4 10 1 10 -3 0 -6 -1 -7 -2z"/>
<path d="M1004 35 c6 -19 14 -35 18 -35 11 0 10 7 -7 40 -21 40 -24 38 -11 -5z"/>
<path d="M1300 58 c0 -29 13 -58 25 -58 19 0 15 45 -6 58 -15 10 -19 9 -19 0z"/>
<path d="M781 50 c0 -8 4 -22 9 -30 12 -18 12 -2 0 25 -6 13 -9 15 -9 5z"/>
<path d="M1133 45 c0 -8 4 -12 9 -9 5 3 6 10 3 15 -9 13 -12 11 -12 -6z"/>
<path d="M1255 29 c0 -23 4 -29 23 -29 14 0 22 6 22 16 0 14 -3 14 -15 4 -13
-11 -14 -10 -10 2 3 8 0 20 -7 26 -10 8 -13 4 -13 -19z"/>
<path d="M1790 41 c0 -6 4 -13 10 -16 6 -3 7 1 4 9 -7 18 -14 21 -14 7z"/>
<path d="M2340 45 c0 -10 83 -45 105 -44 15 0 11 5 -15 18 -38 20 -90 35 -90
26z"/>
<path d="M860 26 c0 -8 4 -17 9 -20 5 -4 7 3 4 14 -6 23 -13 26 -13 6z"/>
<path d="M527 23 c-11 -11 -8 -20 8 -20 8 0 16 6 19 14 5 13 -15 18 -27 6z"/>
<path d="M901 14 c0 -11 3 -14 6 -6 3 7 2 16 -1 19 -3 4 -6 -2 -5 -13z"/>
<path d="M1950 16 c0 -9 5 -16 10 -16 6 0 10 4 10 9 0 6 -4 13 -10 16 -5 3
-10 -1 -10 -9z"/>
<path d="M1160 10 c0 -5 5 -10 11 -10 5 0 7 5 4 10 -3 6 -8 10 -11 10 -2 0 -4
-4 -4 -10z"/>
<path d="M1220 10 c0 -5 5 -10 10 -10 6 0 10 5 10 10 0 6 -4 10 -10 10 -5 0
-10 -4 -10 -10z"/>
</g>
</svg>
